<mxGraphModel dx="1245" dy="1187" grid="1" gridSize="10" guides="1" tooltips="1" connect="1" arrows="1" fold="1" page="1" pageScale="1" pageWidth="850" pageHeight="1100" math="1" shadow="0">
  <root>
    <mxCell id="0" />
    <mxCell id="1" parent="0" />
    <!-- Start -->
    <mxCell id="2" value="เริ่มต้น" style="shape=ellipse;whiteSpace=wrap;html=1;fillColor=#dae8fc;strokeColor=#6c8ebf;" vertex="1" parent="1">
      <mxGeometry x="350" y="10" width="100" height="40" as="geometry" />
    </mxCell>
    <!-- Process: Declare Variables -->
    <mxCell id="3" value="ประกาศตัวแปร: height, base, area (float)" style="rounded=0;whiteSpace=wrap;html=1;fillColor=#d5e8d4;strokeColor=#82b366;" vertex="1" parent="1">
      <mxGeometry x="300" y="80" width="200" height="50" as="geometry" />
    </mxCell>
    <!-- Arrow Start -> Declare -->
    <mxCell id="A2_3" value="" style="endArrow=classic;html=1;entryDx=0;entryDy=0;entryPerimeter=0;" edge="1" parent="1" source="2" target="3">
      <mxGeometry width="50" height="50" relative="1" as="geometry">
        <mxPoint x="400" y="50" as="sourcePoint" />
        <mxPoint x="400" y="80" as="targetPoint" />
      </mxGeometry>
    </mxCell>
    <!-- Output: Prompt Height -->
    <mxCell id="4" value="แสดงข้อความต้อนรับและให้ป้อน&lt;br&gt;ค่าส่วนสูง (H)" style="shape=parallelogram;perimeter=parallelogramPerimeter;whiteSpace=wrap;html=1;fillColor=#fff2cc;strokeColor=#d6b656;" vertex="1" parent="1">
      <mxGeometry x="300" y="170" width="200" height="50" as="geometry" />
    </mxCell>
    <!-- Arrow Declare -> Output H -->
    <mxCell id="A3_4" value="" style="endArrow=classic;html=1;" edge="1" parent="1" source="3" target="4">
      <mxGeometry width="50" height="50" relative="1" as="geometry">
        <mxPoint x="400" y="130" as="sourcePoint" />
        <mxPoint x="400" y="170" as="targetPoint" />
      </mxGeometry>
    </mxCell>
    <!-- Input: Read Height -->
    <mxCell id="5" value="รับค่าส่วนสูง (height)" style="shape=parallelogram;perimeter=parallelogramPerimeter;whiteSpace=wrap;html=1;fillColor=#fff2cc;strokeColor=#d6b656;" vertex="1" parent="1">
      <mxGeometry x="320" y="260" width="160" height="50" as="geometry" />
    </mxCell>
    <!-- Arrow Output H -> Input H -->
    <mxCell id="A4_5" value="" style="endArrow=classic;html=1;" edge="1" parent="1" source="4" target="5">
      <mxGeometry width="50" height="50" relative="1" as="geometry">
        <mxPoint x="400" y="220" as="sourcePoint" />
        <mxPoint x="400" y="260" as="targetPoint" />
      </mxGeometry>
    </mxCell>
    <!-- Condition: Height Input Error (scanf != 1) -->
    <mxCell id="6" value="การป้อนค่าส่วนสูง (H)&lt;br&gt;ไม่ถูกต้อง? &lt;br&gt;($$scanf(...) \ne 1$$)" style="shape=rhombus;whiteSpace=wrap;html=1;fillColor=#f8cecc;strokeColor=#b85450;" vertex="1" parent="1">
      <mxGeometry x="300" y="350" width="200" height="80" as="geometry" />
    </mxCell>
    <!-- Arrow Input H -> Condition H -->
    <mxCell id="A5_6" value="" style="endArrow=classic;html=1;" edge="1" parent="1" source="5" target="6">
      <mxGeometry width="50" height="50" relative="1" as="geometry">
        <mxPoint x="400" y="310" as="sourcePoint" />
        <mxPoint x="400" y="350" as="targetPoint" />
      </mxGeometry>
    </mxCell>
    <!-- Output: Error H (True branch) -->
    <mxCell id="7" value="แสดงข้อผิดพลาดส่วนสูง" style="shape=parallelogram;perimeter=parallelogramPerimeter;whiteSpace=wrap;html=1;fillColor=#fff2cc;strokeColor=#d6b656;" vertex="1" parent="1">
      <mxGeometry x="550" y="360" width="160" height="50" as="geometry" />
    </mxCell>
    <!-- Arrow Condition H -> Output Error H (True) -->
    <mxCell id="A6_7" value="จริง" style="endArrow=classic;html=1;exitDx=0;exitDy=0;exitPerimeter=0;" edge="1" parent="1" source="6">
      <mxGeometry width="50" height="50" relative="1" as="geometry">
        <mxPoint x="500" y="390" as="sourcePoint" />
        <mxPoint x="550" y="385" as="targetPoint" />
      </mxGeometry>
    </mxCell>
    <!-- Output: Prompt Base (False branch) -->
    <mxCell id="8" value="แสดงข้อความให้ป้อนค่าฐาน (W)" style="shape=parallelogram;perimeter=parallelogramPerimeter;whiteSpace=wrap;html=1;fillColor=#fff2cc;strokeColor=#d6b656;" vertex="1" parent="1">
      <mxGeometry x="300" y="470" width="200" height="50" as="geometry" />
    </mxCell>
    <!-- Arrow Condition H -> Output B Prompt (False) -->
    <mxCell id="A6_8" value="เท็จ" style="endArrow=classic;html=1;" edge="1" parent="1" source="6" target="8">
      <mxGeometry width="50" height="50" relative="1" as="geometry">
        <mxPoint x="400" y="430" as="sourcePoint" />
        <mxPoint x="400" y="470" as="targetPoint" />
      </mxGeometry>
    </mxCell>
    <!-- Input: Read Base -->
    <mxCell id="9" value="รับค่าฐาน (base)" style="shape=parallelogram;perimeter=parallelogramPerimeter;whiteSpace=wrap;html=1;fillColor=#fff2cc;strokeColor=#d6b656;" vertex="1" parent="1">
      <mxGeometry x="320" y="560" width="160" height="50" as="geometry" />
    </mxCell>
    <!-- Arrow Output B -> Input B -->
    <mxCell id="A8_9" value="" style="endArrow=classic;html=1;" edge="1" parent="1" source="8" target="9">
      <mxGeometry width="50" height="50" relative="1" as="geometry">
        <mxPoint x="400" y="520" as="sourcePoint" />
        <mxPoint x="400" y="560" as="targetPoint" />
      </mxGeometry>
    </mxCell>
    <!-- Condition: Base Input Error (scanf != 1) -->
    <mxCell id="12" value="การป้อนค่าฐาน (W)&lt;br&gt;ไม่ถูกต้อง?&lt;br&gt; ($$scanf(...) \ne 1$$)" style="shape=rhombus;whiteSpace=wrap;html=1;fillColor=#f8cecc;strokeColor=#b85450;" vertex="1" parent="1">
      <mxGeometry x="300" y="650" width="200" height="80" as="geometry" />
    </mxCell>
    <!-- Arrow Input B -> Condition B -->
    <mxCell id="A9_12" value="" style="endArrow=classic;html=1;" edge="1" parent="1" source="9" target="12">
      <mxGeometry width="50" height="50" relative="1" as="geometry">
        <mxPoint x="400" y="610" as="sourcePoint" />
        <mxPoint x="400" y="650" as="targetPoint" />
      </mxGeometry>
    </mxCell>
    <!-- Output: Error B (True branch) -->
    <mxCell id="13" value="แสดงข้อผิดพลาดฐาน" style="shape=parallelogram;perimeter=parallelogramPerimeter;whiteSpace=wrap;html=1;fillColor=#fff2cc;strokeColor=#d6b656;" vertex="1" parent="1">
      <mxGeometry x="550" y="660" width="160" height="50" as="geometry" />
    </mxCell>
    <!-- Arrow Condition B -> Output Error B (True) -->
    <mxCell id="A12_13" value="จริง" style="endArrow=classic;html=1;exitDx=0;exitDy=0;exitPerimeter=0;" edge="1" parent="1" source="12">
      <mxGeometry width="50" height="50" relative="1" as="geometry">
        <mxPoint x="500" y="690" as="sourcePoint" />
        <mxPoint x="550" y="685" as="targetPoint" />
      </mxGeometry>
    </mxCell>
    <!-- Process: Return 1 (Error Exit) -->
    <mxCell id="10" value="คืนค่า 1&lt;br&gt;(return 1)" style="rounded=0;whiteSpace=wrap;html=1;fillColor=#d5e8d4;strokeColor=#82b366;" vertex="1" parent="1">
      <mxGeometry x="550" y="770" width="160" height="50" as="geometry" />
    </mxCell>
    <!-- Arrow Output Error H -> Return 1 -->
    <mxCell id="A7_10" value="" style="endArrow=classic;html=1;" edge="1" parent="1" source="7" target="10">
      <mxGeometry width="50" height="50" relative="1" as="geometry">
        <mxPoint x="630" y="410" as="sourcePoint" />
        <mxPoint x="630" y="770" as="targetPoint" />
        <Array as="points">
          <mxPoint x="630" y="450" />
          <mxPoint x="750" y="450" />
          <mxPoint x="750" y="795" />
          <mxPoint x="710" y="795" />
        </Array>
      </mxGeometry>
    </mxCell>
    <!-- Arrow Output Error B -> Return 1 -->
    <mxCell id="A13_10" value="" style="endArrow=classic;html=1;" edge="1" parent="1" source="13" target="10">
      <mxGeometry width="50" height="50" relative="1" as="geometry">
        <mxPoint x="630" y="710" as="sourcePoint" />
        <mxPoint x="630" y="770" as="targetPoint" />
      </mxGeometry>
    </mxCell>
    <!-- Process: Calculate Area (False branch) -->
    <mxCell id="14" value="คำนวณพื้นที่: &lt;br&gt;$$\text{Area} = (H \times B) / 2.0$$" style="rounded=0;whiteSpace=wrap;html=1;fillColor=#d5e8d4;strokeColor=#82b366;" vertex="1" parent="1">
      <mxGeometry x="300" y="770" width="200" height="50" as="geometry" />
    </mxCell>
    <!-- Arrow Condition B -> Process Calculate (False) -->
    <mxCell id="A12_14" value="เท็จ" style="endArrow=classic;html=1;" edge="1" parent="1" source="12" target="14">
      <mxGeometry width="50" height="50" relative="1" as="geometry">
        <mxPoint x="400" y="730" as="sourcePoint" />
        <mxPoint x="400" y="770" as="targetPoint" />
      </mxGeometry>
    </mxCell>
    <!-- Output: Display Result -->
    <mxCell id="16" value="แสดงผลลัพธ์: ส่วนสูง (H), ฐาน (W), &lt;br&gt;และพื้นที่สามเหลี่ยม (Area)" style="shape=parallelogram;perimeter=parallelogramPerimeter;whiteSpace=wrap;html=1;fillColor=#fff2cc;strokeColor=#d6b656;" vertex="1" parent="1">
      <mxGeometry x="280" y="860" width="240" height="50" as="geometry" />
    </mxCell>
    <!-- Arrow Process Calculate -> Output Result -->
    <mxCell id="A14_16" value="" style="endArrow=classic;html=1;" edge="1" parent="1" source="14" target="16">
      <mxGeometry width="50" height="50" relative="1" as="geometry">
        <mxPoint x="400" y="820" as="sourcePoint" />
        <mxPoint x="400" y="860" as="targetPoint" />
      </mxGeometry>
    </mxCell>
    <!-- Process: Return 0 (Success Exit) -->
    <mxCell id="17" value="คืนค่า 0&lt;br&gt;(return 0)" style="rounded=0;whiteSpace=wrap;html=1;fillColor=#d5e8d4;strokeColor=#82b366;" vertex="1" parent="1">
      <mxGeometry x="320" y="950" width="160" height="50" as="geometry" />
    </mxCell>
    <!-- Arrow Output Result -> Return 0 -->
    <mxCell id="A16_17" value="" style="endArrow=classic;html=1;" edge="1" parent="1" source="16" target="17">
      <mxGeometry width="50" height="50" relative="1" as="geometry">
        <mxPoint x="400" y="910" as="sourcePoint" />
        <mxPoint x="400" y="950" as="targetPoint" />
      </mxGeometry>
    </mxCell>
    <!-- Stop -->
    <mxCell id="11" value="สิ้นสุด" style="shape=ellipse;whiteSpace=wrap;html=1;fillColor=#dae8fc;strokeColor=#6c8ebf;" vertex="1" parent="1">
      <mxGeometry x="350" y="1050" width="100" height="40" as="geometry" />
    </mxCell>
    <!-- Arrow Return 1 -> Stop -->
    <mxCell id="A10_11" value="" style="endArrow=classic;html=1;" edge="1" parent="1" source="10" target="11">
      <mxGeometry width="50" height="50" relative="1" as="geometry">
        <mxPoint x="630" y="820" as="sourcePoint" />
        <mxPoint x="450" y="1050" as="targetPoint" />
        <Array as="points">
          <mxPoint x="630" y="1070" />
        </Array>
      </mxGeometry>
    </mxCell>
    <!-- Arrow Return 0 -> Stop -->
    <mxCell id="A17_11" value="" style="endArrow=classic;html=1;" edge="1" parent="1" source="17" target="11">
      <mxGeometry width="50" height="50" relative="1" as="geometry">
        <mxPoint x="400" y="1000" as="sourcePoint" />
        <mxPoint x="400" y="1050" as="targetPoint" />
      </mxGeometry>
    </mxCell>
  </root>
</mxGraphModel>
